<?xml version="1.0" encoding="UTF-8"?>
<svg id="Layer_1" xmlns="http://www.w3.org/2000/svg" version="1.1" viewBox="0 0 474.878864 475.1208">
  <!-- Generator: Adobe Illustrator 29.0.1, SVG Export Plug-In . SVG Version: 2.1.0 Build 192)  -->
  <defs>
    <style>
      .st0 {
        fill: none;
        stroke: #312c85;
        stroke-miterlimit: 10;
        stroke-width: .25px;
      }
    </style>
  </defs>
  <rect class="st0" x="216.911222" y="382.147041" width="20.660835" height="20.660835" rx="2.066084" ry="2.066084" transform="translate(110.402272 830.685036) rotate(-135)"/>
  <rect class="st0" x="144.598291" y="309.834117" width="20.660835" height="20.660835" rx="2.066084" ry="2.066084" transform="translate(309.857417 640.329069) rotate(180)"/>
  <rect class="st0" x="216.911222" y="309.834117" width="20.660835" height="20.660835" rx="2.066084" ry="2.066084" transform="translate(454.48328 640.329069) rotate(180)"/>
  <rect class="st0" x="216.911222" y="433.595715" width="20.660835" height="20.660835" rx="2.066084" ry="2.066084" transform="translate(454.48328 887.852265) rotate(180)"/>
  <rect class="st0" x="289.122439" y="433.595715" width="20.660835" height="20.660835" rx="2.066084" ry="2.066084" transform="translate(598.905713 887.852265) rotate(180)"/>
  <line class="st0" x1="227.24164" y1="454.25655" x2="227.24164" y2="475.1208"/>
  <line class="st0" x1="227.24164" y1="378.723842" x2="227.24164" y2="330.494952"/>
  <line class="st0" x1="227.24164" y1="433.595715" x2="227.24164" y2="406.231076"/>
  <path class="st0" d="M299.452857,433.595715v-39.052173c0-1.141066-.925017-2.066084-2.066084-2.066084h-56.391516"/>
  <path class="st0" d="M213.488023,392.477459h-56.493231c-1.141066,0-2.066084-.925017-2.066084-2.066084v-59.916423"/>
  <rect class="st0" x="51.573674" y="216.911215" width="20.660835" height="20.660835" rx="2.066084" ry="2.066084" transform="translate(-142.552811 110.330336) rotate(-45)"/>
  <rect class="st0" x="123.886598" y="144.598283" width="20.660835" height="20.660835" rx="2.066084" ry="2.066084" transform="translate(-20.711685 289.145717) rotate(-90)"/>
  <rect class="st0" x="123.886598" y="216.911215" width="20.660835" height="20.660835" rx="2.066084" ry="2.066084" transform="translate(-93.024617 361.458648) rotate(-90)"/>
  <rect class="st0" x=".125" y="216.911215" width="20.660835" height="20.660835" rx="2.066084" ry="2.066084" transform="translate(-216.786215 237.69705) rotate(-90)"/>
  <rect class="st0" x=".125" y="289.122431" width="20.660835" height="20.660835" rx="2.066084" ry="2.066084" transform="translate(-288.997431 309.908267) rotate(-90)"/>
  <line class="st0" x1="75.657709" y1="227.241633" x2="123.886598" y2="227.241633"/>
  <line class="st0" x1="20.785835" y1="227.241633" x2="48.150475" y2="227.241633"/>
  <path class="st0" d="M20.785835,299.452849h39.052173c1.141066,0,2.066084-.925017,2.066084-2.066084v-56.391516"/>
  <path class="st0" d="M61.904092,213.488016v-56.493231c0-1.141066.925017-2.066084,2.066084-2.066084h59.916423"/>
  <rect class="st0" x="216.809507" y="51.573674" width="20.660835" height="20.660835" rx="2.066084" ry="2.066084" transform="translate(110.300547 -142.480893) rotate(45)"/>
  <rect class="st0" x="289.122439" y="123.886598" width="20.660835" height="20.660835" rx="2.066084" ry="2.066084"/>
  <rect class="st0" x="216.809507" y="123.886598" width="20.660835" height="20.660835" rx="2.066084" ry="2.066084"/>
  <rect class="st0" x="216.809507" y=".125" width="20.660835" height="20.660835" rx="2.066084" ry="2.066084"/>
  <rect class="st0" x="144.598291" y=".125" width="20.660835" height="20.660835" rx="2.066084" ry="2.066084"/>
  <line class="st0" x1="227.139925" y1="75.657709" x2="227.139925" y2="123.886598"/>
  <line class="st0" x1="227.139925" y1="20.785835" x2="227.139925" y2="48.150475"/>
  <path class="st0" d="M154.928708,20.785835v39.052173c0,1.141066.925017,2.066084,2.066084,2.066084h56.391516"/>
  <path class="st0" d="M240.893542,61.904092h56.493231c1.141066,0,2.066084.925017,2.066084,2.066084v59.916423"/>
  <rect class="st0" x="381.905105" y="216.8095" width="20.660835" height="20.660835" rx="2.066084" ry="2.066084" transform="translate(830.200096 110.399696) rotate(135)"/>
  <rect class="st0" x="309.592181" y="289.122431" width="20.660835" height="20.660835" rx="2.066084" ry="2.066084" transform="translate(619.375448 -20.469749) rotate(90)"/>
  <rect class="st0" x="309.592181" y="216.8095" width="20.660835" height="20.660835" rx="2.066084" ry="2.066084" transform="translate(547.062516 -92.782681) rotate(90)"/>
  <rect class="st0" x="433.353779" y="216.8095" width="20.660835" height="20.660835" rx="2.066084" ry="2.066084" transform="translate(670.824114 -216.544279) rotate(90)"/>
  <rect class="st0" x="433.353779" y="144.598283" width="20.660835" height="20.660835" rx="2.066084" ry="2.066084" transform="translate(598.612897 -288.755495) rotate(90)"/>
  <line class="st0" x1="454.014614" y1="227.139918" x2="474.878864" y2="227.139918"/>
  <line class="st0" x1="378.481906" y1="227.139918" x2="330.253016" y2="227.139918"/>
  <line class="st0" x1="433.353779" y1="227.139918" x2="405.98914" y2="227.139918"/>
  <path class="st0" d="M433.353779,154.928701h-39.052173c-1.141066,0-2.066084.925017-2.066084,2.066084v56.391516"/>
  <path class="st0" d="M392.235523,240.893535v56.493231c0,1.141066-.925017,2.066084-2.066084,2.066084h-59.916423"/>
  <g>
    <rect class="st0" x="180.754757" y="247.800761" width="20.660835" height="20.660835" rx="2.066084" ry="2.066084" transform="translate(382.170349 516.262357) rotate(180)"/>
    <path class="st0" d="M227.24164,309.783267v-49.586005c0-1.141066-.925017-2.066084-2.066084-2.066084h-23.759965"/>
    <path class="st0" d="M154.928708,309.834117v-49.636855c0-1.141066.925017-2.066084,2.066084-2.066084h23.759965"/>
  </g>
  <g>
    <rect class="st0" x="185.970812" y="180.754749" width="20.660835" height="20.660835" rx="2.066084" ry="2.066084" transform="translate(5.216063 387.386396) rotate(-90)"/>
    <path class="st0" d="M144.649141,227.241633h49.586005c1.141066,0,2.066084-.925017,2.066084-2.066084v-23.759965"/>
    <path class="st0" d="M144.598291,154.928701h49.636855c1.141066,0,2.066084.925017,2.066084,2.066084v23.759965"/>
  </g>
  <g>
    <rect class="st0" x="253.169388" y="185.996237" width="20.660835" height="20.660835" rx="2.066084" ry="2.066084"/>
    <path class="st0" d="M227.34334,144.674566v49.586005c0,1.141066.925017,2.066084,2.066084,2.066084h23.759965"/>
    <path class="st0" d="M299.656272,144.623716v49.636855c0,1.141066-.925017,2.066084-2.066084,2.066084h-23.759965"/>
  </g>
  <g>
    <rect class="st0" x="247.73065" y="253.220238" width="20.660835" height="20.660835" rx="2.066084" ry="2.066084" transform="translate(521.611723 5.489588) rotate(90)"/>
    <path class="st0" d="M309.713156,227.39419h-49.586005c-1.141066,0-2.066084.925017-2.066084,2.066084v23.759965"/>
    <path class="st0" d="M309.764006,299.707121h-49.636855c-1.141066,0-2.066084-.925017-2.066084-2.066084v-23.759965"/>
  </g>
  <g>
    <rect class="st0" x="82.564927" y="82.564927" width="20.660835" height="20.660835" rx="2.066084" ry="2.066084" transform="translate(0 185.790689) rotate(-90)"/>
    <rect class="st0" x="82.564927" y=".125" width="20.660835" height="20.660835" rx="2.066084" ry="2.066084" transform="translate(82.439927 103.350762) rotate(-90)"/>
    <rect class="st0" x="41.344963" y=".125" width="20.660835" height="20.660835" rx="2.066084" ry="2.066084" transform="translate(41.219963 62.130799) rotate(-90)"/>
    <path class="st0" d="M134.217016,144.547433v-49.586005c0-1.141066-.925017-2.066084-2.066084-2.066084h-28.92517"/>
    <line class="st0" x1="92.895345" y1="82.564927" x2="92.895345" y2="20.785835"/>
    <path class="st0" d="M82.564927,92.895345h-28.823462c-1.141066,0-2.066084-.925017-2.066084-2.066084V20.785835"/>
  </g>
  <g>
    <rect class="st0" x="351.155803" y="82.564927" width="20.660835" height="20.660835" rx="2.066084" ry="2.066084"/>
    <rect class="st0" x="433.59573" y="82.564927" width="20.660835" height="20.660835" rx="2.066084" ry="2.066084"/>
    <rect class="st0" x="433.59573" y="41.344963" width="20.660835" height="20.660835" rx="2.066084" ry="2.066084"/>
    <path class="st0" d="M309.834132,134.217016h49.586005c1.141066,0,2.066084-.925017,2.066084-2.066084v-28.92517"/>
    <line class="st0" x1="371.816638" y1="92.895345" x2="433.59573" y2="92.895345"/>
    <path class="st0" d="M361.48622,82.564927v-28.823462c0-1.141066.925017-2.066084,2.066084-2.066084h70.043426"/>
  </g>
  <g>
    <rect class="st0" x="351.288779" y="351.155788" width="20.660835" height="20.660835" rx="2.066084" ry="2.066084" transform="translate(723.105403 -.132992) rotate(90)"/>
    <rect class="st0" x="351.288779" y="433.595715" width="20.660835" height="20.660835" rx="2.066084" ry="2.066084" transform="translate(805.54533 82.306935) rotate(90)"/>
    <rect class="st0" x="392.508743" y="433.595715" width="20.660835" height="20.660835" rx="2.066084" ry="2.066084" transform="translate(846.765293 41.086972) rotate(90)"/>
    <path class="st0" d="M320.297526,309.834117v49.586005c0,1.141066.925017,2.066084,2.066084,2.066084h28.92517"/>
    <line class="st0" x1="361.619197" y1="371.816623" x2="361.619197" y2="433.595715"/>
    <path class="st0" d="M371.949615,361.486205h28.823462c1.141066,0,2.066084.925017,2.066084,2.066084v70.043426"/>
  </g>
  <g>
    <rect class="st0" x="82.564927" y="351.155788" width="20.660835" height="20.660835" rx="2.066084" ry="2.066084" transform="translate(185.790689 722.972411) rotate(180)"/>
    <rect class="st0" x=".125" y="351.155788" width="20.660835" height="20.660835" rx="2.066084" ry="2.066084" transform="translate(20.910835 722.972411) rotate(180)"/>
    <rect class="st0" x=".125" y="392.375751" width="20.660835" height="20.660835" rx="2.066084" ry="2.066084" transform="translate(20.910835 805.412338) rotate(180)"/>
    <path class="st0" d="M144.547433,320.164535h-49.586005c-1.141066,0-2.066084.925017-2.066084,2.066084v28.92517"/>
    <line class="st0" x1="82.564927" y1="361.486205" x2="20.785835" y2="361.486205"/>
    <path class="st0" d="M92.895345,371.816623v28.823462c0,1.141066-.925017,2.066084-2.066084,2.066084H20.785835"/>
  </g>
  <metadata>
    <sfw xmlns="http://ns.adobe.com/SaveForWeb/1.0/">
      <slices/>
      <sliceSourceBounds x="210.14" y="-577.07" width="474.88" height="475.12" bottomLeftOrigin="true"/>
    </sfw>
  </metadata>
</svg>